<svg xmlns="http://www.w3.org/2000/svg" viewBox="0 0 14 14" preserveAspectRatio="xMidYMin meet"><path fill-opacity=".85" d="M.768 13.237c1.035 1.032 2.554 1.046 3.589-.132C5.41 11.903 6.566 9.71 8.188 8.088c1.082-1.085 2.33-.151 3.977-1.348 1.06-.649 1.72-1.946 1.435-3.11l-2.338.638c-.266.072-.445-.087-.526-.361l-.165-.582c-.081-.274.017-.5.28-.57l2.357-.643c-.084-.291-.288-.7-.604-1.021C11.208-.33 8.868-.352 7.484.962c-2.04 1.941-.596 3.862-1.707 4.967C4.287 7.417 2.09 8.594.892 9.649c-1.178 1.037-1.158 2.553-.124 3.588Zm.795-.792c-.57-.582-.562-1.426.106-2.016 1.172-1.03 3.524-2.327 4.905-3.706 1.547-1.546-.061-3.336 1.71-4.964.964-.89 2.692-.85 3.677.188l.386-.677-1.79.47c-.91.24-1.31.956-1.038 1.893l.16.55c.29 1.013.894 1.352 1.75 1.122l1.874-.506-.708-.355a2.578 2.578 0 0 1-.685 1.197c-1.348 1.317-2.992.137-4.516 1.653-1.502 1.499-2.786 3.862-3.815 5.042-.601.688-1.451.69-2.016.11Zm.981-.36a.621.621 0 1 0 0-1.243.621.621 0 0 0 0 1.242Z"/></svg>